<svg xmlns="http://www.w3.org/2000/svg" version="1.1" viewBox="-5.0 -10.0 110.0 135.0">
 <path d="m72.488 55.809c-0.097656-1.2305-1.1211-2.1875-2.3594-2.1992-3.5977 0.011719-7.1719-0.58984-10.57-1.7812-0.84766-0.30469-1.5078-0.98828-1.7891-1.8477s-0.15234-1.8008 0.35156-2.5508c1.3477-1.9141 1.9648-4.25 1.7383-6.5781-0.52734-5.2422-5.0586-9.1523-10.32-8.9102-5.2617 0.24609-9.4102 4.5625-9.4492 9.8281-0.003906 1.9922 0.60156 3.9375 1.7305 5.582 0.51172 0.74609 0.65625 1.6875 0.39453 2.5547-0.26172 0.87109-0.90625 1.5742-1.7461 1.9141-3.4062 1.1992-6.9961 1.8047-10.609 1.7891-1.2344 0.023437-2.2539 0.97266-2.3594 2.1992-0.035156 0.68359 0.21094 1.3516 0.6875 1.8477 0.47266 0.49219 1.1289 0.76953 1.8125 0.76562 3.8555-0.007813 7.6836-0.61719 11.352-1.8125 0.58594-0.19141 1.2266 0.027344 1.5781 0.53516 0.34766 0.50781 0.32031 1.1875-0.070313 1.6641-1.6836 1.9922-3.7539 3.625-6.0898 4.793-1.0938 0.55469-1.5898 1.8516-1.1484 3 0.24609 0.62891 0.75 1.1211 1.3789 1.3633 0.63281 0.24219 1.3359 0.20703 1.9414-0.09375 4.1328-2.0352 7.5742-5.2461 9.8867-9.2305 0.25-0.42188 0.70312-0.68359 1.1914-0.68359s0.94141 0.26172 1.1914 0.68359c2.293 3.9531 5.6953 7.1445 9.7891 9.1797 1.1719 0.62891 2.6289 0.21875 3.3008-0.92969 0.31641-0.56641 0.38672-1.2383 0.19922-1.8594-0.19141-0.61719-0.62109-1.1367-1.1992-1.4297-2.3359-1.168-4.4102-2.7969-6.0898-4.793-0.39063-0.47656-0.41797-1.1562-0.070313-1.6641 0.34766-0.50781 0.99219-0.72656 1.5781-0.53516 3.6445 1.1914 7.4492 1.8008 11.281 1.8125 0.67969 0 1.3281-0.28125 1.793-0.77344 0.46875-0.49609 0.70703-1.1602 0.66797-1.8398zm-26.129-10.598c-0.75781 0-1.4453-0.46094-1.7344-1.1602-0.29297-0.70312-0.13281-1.5117 0.40625-2.0508 0.53516-0.53516 1.3438-0.69922 2.0469-0.40625 0.70312 0.28906 1.1602 0.97656 1.1602 1.7344 0 0.5-0.19531 0.98047-0.55078 1.332-0.35156 0.35156-0.82812 0.55078-1.3281 0.55078zm7.2812 0c-0.76172 0.003906-1.4492-0.45313-1.7461-1.1562-0.29297-0.69922-0.13281-1.5117 0.40234-2.0508 0.53516-0.53906 1.3477-0.70312 2.0508-0.41016 0.70312 0.28906 1.1641 0.97656 1.1641 1.7344 0 1.0352-0.83594 1.875-1.8711 1.8828z"/>
<text x="0.0" y="117.5" font-size="5.0" font-weight="bold" font-family="Arbeit Regular, Helvetica, Arial-Unicode, Arial, Sans-serif" fill="#000000">Created by Oh Rian</text><text x="0.0" y="122.5" font-size="5.0" font-weight="bold" font-family="Arbeit Regular, Helvetica, Arial-Unicode, Arial, Sans-serif" fill="#000000">from Noun Project</text></svg>