<svg width="265" height="265" viewBox="0 0 265 265" fill="none" xmlns="http://www.w3.org/2000/svg">
<rect width="265" height="265" rx="54" fill="white"/>
<path d="M24 35L40 19.5L52 13.5H65H97.5H122L126 134L136 113.5L113 227.5L199 201L148 254.5H116.5H65L40 247L28.5 238L18.5 219L14.5 201V91.5V61L24 35Z" fill="#4F23EC" stroke="black"/>
<path d="M22.5 34.5L38.5 19L50.5 13H63.5H96H120.5L124.5 133.5L134.5 113L111.5 227L197.5 200.5L146.5 254H115H63.5L38.5 246.5L27 237.5L17 218.5L13 200.5V91V60.5L22.5 34.5Z" fill="#6A5ED9" stroke="black"/>
<path d="M12.5 64C12.5 35.5573 35.5573 12.5 64 12.5H200C228.443 12.5 251.5 35.5573 251.5 64V200C251.5 228.443 228.443 251.5 200 251.5H64C35.5573 251.5 12.5 228.443 12.5 200V64Z" stroke="black" stroke-width="5"/>
<ellipse cx="151.002" cy="26.7123" rx="5.5" ry="7.34425" transform="rotate(-4.02593 151.002 26.7123)" fill="black"/>
</svg>
